<svg width="31" height="31" viewBox="0 0 31 31" fill="none" xmlns="http://www.w3.org/2000/svg">
<path d="M27.1242 24.7825V21.2824C27.1384 20.7102 26.9415 20.1527 26.5707 19.7161C25.5252 18.4846 21.9396 17.6968 20.5182 17.9994C19.4103 18.2352 18.6351 19.3477 17.8773 20.104C14.9506 18.4431 12.5273 16.0247 10.8632 13.1038C11.621 12.3474 12.7357 11.5738 12.972 10.468C13.2746 9.05171 12.488 5.48893 11.265 4.43925C10.8349 4.07004 10.2849 3.86954 9.71753 3.87511H6.21047C4.8742 3.87637 3.76246 5.07489 3.88413 6.41853C3.875 17.9994 12.9167 27.125 24.5758 27.1159C25.9266 27.2377 27.1297 26.1205 27.1242 24.7825Z" stroke="white" stroke-width="1.5" stroke-linecap="round" stroke-linejoin="round"/>
</svg>
